<svg width="128" height="26" viewBox="0 0 128 26" fill="none" xmlns="http://www.w3.org/2000/svg">
<path d="M22.6883 9.06992L19.3883 24.9999H13.7183L11.5883 13.2999L9.48828 24.9999H3.87828L0.488281 9.06992H5.28828L6.93828 21.4599L9.42828 9.06992H14.0483L16.2383 21.4599L18.1583 9.06992H22.6883Z" fill="#333333"/>
<path d="M31.599 8.55992C34.039 8.55992 35.949 9.30992 37.329 10.8099C38.709 12.2899 39.399 14.3699 39.399 17.0499C39.399 18.7499 39.079 20.2399 38.439 21.5199C37.819 22.7799 36.919 23.7599 35.739 24.4599C34.579 25.1599 33.199 25.5099 31.599 25.5099C29.179 25.5099 27.269 24.7699 25.869 23.2899C24.489 21.7899 23.799 19.6999 23.799 17.0199C23.799 15.3199 24.109 13.8399 24.729 12.5799C25.369 11.2999 26.269 10.3099 27.429 9.60992C28.609 8.90992 29.999 8.55992 31.599 8.55992ZM31.599 12.0399C30.639 12.0399 29.919 12.4499 29.439 13.2699C28.959 14.0699 28.719 15.3199 28.719 17.0199C28.719 18.7599 28.949 20.0299 29.409 20.8299C29.889 21.6299 30.619 22.0299 31.599 22.0299C32.559 22.0299 33.279 21.6299 33.759 20.8299C34.239 20.0099 34.479 18.7499 34.479 17.0499C34.479 15.3099 34.239 14.0399 33.759 13.2399C33.299 12.4399 32.579 12.0399 31.599 12.0399Z" fill="#333333"/>
<path d="M50.8585 8.61992C51.4385 8.61992 51.9685 8.68992 52.4485 8.82992L51.6985 13.4199C51.0985 13.2799 50.6185 13.2099 50.2585 13.2099C49.3185 13.2099 48.5985 13.5399 48.0985 14.1999C47.6185 14.8399 47.2385 15.8099 46.9585 17.1099V24.9999H42.2185V9.06992H46.3585L46.7485 12.1599C47.1085 11.0599 47.6485 10.1999 48.3685 9.57992C49.1085 8.93992 49.9385 8.61992 50.8585 8.61992Z" fill="#333333"/>
<path d="M58.9995 2.22992V24.9999H54.2595V2.73992L58.9995 2.22992ZM68.8395 9.06992L64.0095 16.0599L69.2295 24.9999H63.8895L59.1495 16.2999L64.0095 9.06992H68.8395Z" fill="#333333"/>
<path d="M72.7866 20.0799C73.5266 20.0799 74.1566 20.3499 74.6766 20.8899C75.2166 21.4099 75.4866 22.0399 75.4866 22.7799C75.4866 23.5399 75.2166 24.1899 74.6766 24.7299C74.1566 25.2499 73.5266 25.5099 72.7866 25.5099C72.0266 25.5099 71.3766 25.2499 70.8366 24.7299C70.3166 24.1899 70.0566 23.5399 70.0566 22.7799C70.0566 22.0399 70.3166 21.4099 70.8366 20.8899C71.3766 20.3499 72.0266 20.0799 72.7866 20.0799Z" fill="#333333"/>
<path d="M85.0163 5.73992C84.3363 5.73992 83.8463 5.89992 83.5463 6.21992C83.2463 6.53992 83.0963 7.07992 83.0963 7.83992V9.06992H86.8463L86.3363 12.3699H83.0963V24.9999H78.3563V12.3699H75.9563V9.06992H78.3563V7.65992C78.3563 6.05992 78.8763 4.75992 79.9163 3.75992C80.9763 2.73992 82.4863 2.22992 84.4463 2.22992C86.0263 2.22992 87.4763 2.56992 88.7963 3.24992L87.5063 6.33992C86.7063 5.93992 85.8763 5.73992 85.0163 5.73992Z" fill="#333333"/>
<path d="M100.347 20.3799C100.347 20.9799 100.427 21.4199 100.587 21.6999C100.767 21.9799 101.047 22.1899 101.427 22.3299L100.437 25.4199C99.4573 25.3399 98.6573 25.1299 98.0373 24.7899C97.4173 24.4299 96.9373 23.8699 96.5973 23.1099C95.5573 24.7099 93.9573 25.5099 91.7973 25.5099C90.2173 25.5099 88.9573 25.0499 88.0173 24.1299C87.0773 23.2099 86.6073 22.0099 86.6073 20.5299C86.6073 18.7899 87.2473 17.4599 88.5273 16.5399C89.8073 15.6199 91.6573 15.1599 94.0773 15.1599H95.6973V14.4699C95.6973 13.5299 95.4973 12.8899 95.0973 12.5499C94.6973 12.1899 93.9973 12.0099 92.9973 12.0099C92.4773 12.0099 91.8473 12.0899 91.1073 12.2499C90.3673 12.3899 89.6073 12.5899 88.8273 12.8499L87.7473 9.72992C88.7473 9.34992 89.7673 9.05992 90.8073 8.85992C91.8673 8.65992 92.8473 8.55992 93.7473 8.55992C96.0273 8.55992 97.6973 9.02992 98.7573 9.96992C99.8173 10.9099 100.347 12.3199 100.347 14.1999V20.3799ZM93.1773 22.1199C94.2573 22.1199 95.0973 21.6099 95.6973 20.5899V17.7699H94.5273C93.4473 17.7699 92.6373 17.9599 92.0973 18.3399C91.5773 18.7199 91.3173 19.3099 91.3173 20.1099C91.3173 20.7499 91.4773 21.2499 91.7973 21.6099C92.1373 21.9499 92.5973 22.1199 93.1773 22.1199Z" fill="#333333"/>
<path d="M113.153 8.55992C115.053 8.55992 116.513 9.30992 117.533 10.8099C118.553 12.2899 119.063 14.3699 119.063 17.0499C119.063 18.6899 118.803 20.1499 118.283 21.4299C117.783 22.7099 117.053 23.7099 116.093 24.4299C115.153 25.1499 114.033 25.5099 112.733 25.5099C111.873 25.5099 111.083 25.3299 110.363 24.9699C109.663 24.6099 109.063 24.1099 108.563 23.4699L108.323 24.9999H104.123V2.73992L108.863 2.22992V10.6899C109.343 10.0299 109.953 9.50992 110.693 9.12992C111.453 8.74992 112.273 8.55992 113.153 8.55992ZM111.353 22.0599C113.213 22.0599 114.143 20.3899 114.143 17.0499C114.143 15.1499 113.923 13.8399 113.483 13.1199C113.043 12.3999 112.403 12.0399 111.563 12.0399C110.503 12.0399 109.603 12.6599 108.863 13.8999V20.5299C109.163 21.0099 109.523 21.3899 109.943 21.6699C110.383 21.9299 110.853 22.0599 111.353 22.0599Z" fill="#333333"/>
<path d="M126.763 9.06992V24.9999H122.023V9.06992H126.763ZM124.363 0.669922C125.183 0.669922 125.853 0.929922 126.373 1.44992C126.913 1.94992 127.183 2.58992 127.183 3.36992C127.183 4.14992 126.913 4.79992 126.373 5.31992C125.853 5.81992 125.183 6.06992 124.363 6.06992C123.543 6.06992 122.873 5.81992 122.353 5.31992C121.833 4.79992 121.573 4.14992 121.573 3.36992C121.573 2.58992 121.833 1.94992 122.353 1.44992C122.873 0.929922 123.543 0.669922 124.363 0.669922Z" fill="#333333"/>
</svg>
